<svg xmlns="http://www.w3.org/2000/svg" width="375" viewBox="0 0 375 375" height="375" version="1.0"><defs><clipPath id="a"><path d="M 37.5 130.113281 L 108 130.113281 L 108 244.863281 L 37.5 244.863281 Z M 37.5 130.113281"/></clipPath></defs><path fill="#FFF" d="M-37.5 -37.5H412.5V412.5H-37.5z"/><path fill="#FFF" d="M-37.5 -37.5H412.5V412.5H-37.5z"/><path d="M-37.5 -37.5H412.5V412.5H-37.5z"/><g clip-path="url(#a)"><path fill="#F5FFF7" d="M 92.730469 173.132812 C 93.269531 173.253906 93.808594 173.386719 94.347656 173.53125 L 95.0625 173.722656 L 95.25 174.4375 L 95.257812 174.472656 C 95.769531 171.578125 96.542969 168.324219 97.265625 165.859375 C 97.796875 164.046875 98.296875 162.660156 98.726562 161.421875 C 98.398438 160.132812 98 158.871094 97.515625 157.660156 C 95.378906 152.304688 91.578125 147.949219 84.808594 146.484375 C 79.496094 145.335938 75.476562 146.695312 70.949219 149.164062 C 75.390625 146.109375 79.375 144.652344 85.066406 145.007812 C 95.125 145.632812 100.089844 161.367188 107.996094 159.332031 C 100.136719 152.132812 98.21875 140.316406 88.921875 136.691406 C 84.910156 135.128906 80.210938 135.035156 74.683594 137.523438 C 69.066406 140.050781 65.921875 143.800781 62.839844 148.800781 C 65.546875 143.371094 68.5 139.316406 74.199219 136.136719 C 78.023438 134 81.53125 133.179688 84.726562 133.289062 C 84.207031 133.070312 83.667969 132.863281 83.117188 132.664062 C 79.914062 131.539062 76.179688 130.828125 72.683594 130.460938 C 67.300781 131.417969 63.941406 133.171875 59.898438 138.949219 C 57.175781 142.839844 56.644531 145.335938 55.511719 149.84375 C 56.070312 145.050781 56.308594 142.441406 58.636719 137.921875 C 60.632812 134.054688 62.964844 131.707031 65.621094 130.207031 C 64.699219 130.253906 63.785156 130.335938 62.855469 130.453125 C 62.691406 130.621094 62.480469 130.726562 62.246094 130.738281 C 56.695312 131.679688 53.488281 133.363281 50.136719 139.355469 C 47.953125 143.261719 47.761719 145.765625 47.242188 150.292969 C 47.148438 145.476562 47.035156 142.859375 48.742188 138.320312 C 49.398438 136.59375 50.15625 135.164062 51.015625 133.980469 C 50.164062 134.398438 49.371094 134.839844 48.648438 135.300781 C 45.707031 137.199219 43.910156 139.328125 42.703125 141.199219 C 41.144531 143.609375 42.113281 145.527344 42.785156 147.550781 C 43.265625 149 43.582031 150.753906 43.914062 153.066406 C 42.722656 150.472656 41.640625 148.519531 40.269531 146.820312 C 39.601562 146 39.25 146.109375 38.964844 146.828125 C 38.292969 148.507812 37.839844 150.597656 37.679688 153.222656 C 37.496094 156.28125 37.710938 160.0625 38.074219 163.386719 C 38.433594 166.710938 38.933594 169.574219 39.246094 172.308594 C 39.269531 172.519531 39.296875 172.734375 39.316406 172.949219 L 39.917969 172.820312 C 40.5625 172.683594 41.207031 172.558594 41.847656 172.445312 C 41.941406 172.097656 42.054688 171.757812 42.191406 171.421875 C 43.40625 168.4375 43.574219 167.398438 43.785156 164.433594 C 44.324219 156.894531 47.007812 153.410156 51.386719 155.335938 C 56.714844 157.375 61.472656 158.203125 66.851562 158.59375 C 67.484375 158.636719 68.125 158.65625 68.761719 158.648438 C 74.152344 158.566406 78.953125 158.015625 84.386719 156.28125 C 88.871094 154.609375 91.347656 158.242188 91.453125 165.800781 C 91.496094 168.773438 91.605469 169.820312 92.644531 172.871094 C 92.675781 172.957031 92.707031 173.046875 92.730469 173.132812 Z M 63.433594 210.507812 C 66.421875 210.734375 68.449219 210.6875 71.414062 210.246094 C 68.070312 212.058594 66.898438 212.058594 63.433594 210.507812 Z M 60.765625 208.671875 C 65.101562 206.445312 64.941406 208.660156 70.175781 207.511719 C 71.855469 207.140625 72.480469 207.367188 74.074219 207.90625 C 70.359375 207.898438 69.363281 208.929688 67.371094 208.941406 C 63.878906 208.957031 65.886719 207.859375 60.765625 208.671875 Z M 62.023438 191.710938 C 62.9375 191.375 63.53125 190.90625 63.65625 189.554688 C 63.933594 186.644531 64.808594 182.792969 65.054688 179.863281 C 64.375 183.046875 63.289062 187.117188 62.1875 189.746094 C 61.808594 190.648438 62.023438 190.339844 61.316406 190.933594 C 59.53125 192.429688 59.296875 194.804688 61.363281 196.878906 C 59.949219 193.914062 60.804688 192.160156 62.023438 191.710938 Z M 62.691406 195.875 C 62.171875 195.769531 62.226562 194.460938 62.816406 194.59375 C 63.832031 194.828125 64.273438 195.90625 64.964844 196.6875 C 64.207031 196.414062 63.476562 196.039062 62.691406 195.875 Z M 72.839844 195.429688 C 72.902344 195.964844 71.660156 195.570312 70.324219 196.402344 C 70.890625 195.695312 71.078125 195.1875 71.832031 194.625 C 72.386719 194.207031 72.730469 194.492188 72.839844 195.429688 Z M 67.972656 244.765625 C 71.09375 243.5625 74.058594 242.152344 76.796875 240.515625 L 80.3125 233.773438 L 78.855469 239.214844 C 82.527344 236.746094 85.726562 233.8125 88.253906 230.339844 L 90.179688 222.664062 L 89.578125 228.371094 C 91.761719 224.847656 93.296875 220.820312 94.027344 216.210938 C 94.449219 213.550781 94.628906 210.167969 94.660156 206.484375 L 92.71875 210.449219 L 94.660156 204.480469 C 94.625 197.214844 94.335938 186.308594 93.984375 180.398438 L 93.269531 181.253906 C 91.894531 190.019531 90.296875 198.980469 87.726562 200.867188 L 88.28125 202.1875 L 87.5625 200.980469 C 87.335938 201.128906 87.101562 201.230469 86.855469 201.289062 C 86.660156 201.359375 86.472656 201.425781 86.285156 201.503906 L 87.589844 204.625 L 85.847656 201.695312 C 85.476562 201.867188 85.128906 202.058594 84.804688 202.273438 L 85.699219 204.410156 L 84.539062 202.460938 C 83.804688 202.996094 83.203125 203.652344 82.730469 204.457031 C 85.378906 206.730469 87.949219 208.234375 90.070312 206.25 C 90.421875 205.886719 90.988281 205.785156 91.457031 206.039062 C 92.023438 206.34375 92.230469 207.050781 91.929688 207.617188 C 91.070312 209.195312 90.117188 210.414062 88.910156 211.257812 C 87.667969 212.125 86.207031 212.578125 84.371094 212.597656 C 82.632812 212.617188 81.003906 212.109375 79.488281 211.351562 C 77.757812 213.609375 75.796875 215.207031 73.386719 216.28125 C 71.789062 216.992188 70.101562 215.613281 68.03125 215.582031 C 65.894531 215.546875 63.796875 217.042969 61.820312 216.335938 C 59.0625 215.351562 56.625 213.882812 55.207031 211.671875 C 54.039062 212.476562 52.964844 213.105469 52.066406 213.355469 C 50.742188 213.726562 49.523438 213.625 48.441406 213.207031 C 47.28125 212.761719 46.300781 211.957031 45.539062 211.007812 C 44.804688 210.082031 44.269531 209.003906 43.984375 207.976562 C 43.664062 206.835938 43.644531 205.710938 43.976562 204.847656 C 44.066406 204.621094 44.222656 204.417969 44.441406 204.28125 C 44.984375 203.933594 45.703125 204.097656 46.046875 204.636719 C 47.550781 207.003906 49.03125 207.015625 50.53125 206.054688 C 51.199219 205.632812 51.898438 205.035156 52.613281 204.351562 C 51.863281 203.496094 51.101562 202.878906 50.347656 202.335938 L 49.445312 204.453125 L 50.066406 202.140625 C 49.730469 201.910156 49.398438 201.6875 49.066406 201.46875 L 47.601562 204.917969 L 48.609375 201.160156 C 48.246094 200.914062 47.890625 200.65625 47.539062 200.367188 L 46.589844 202.59375 L 47.25 200.132812 C 44.761719 197.984375 42.53125 194.179688 41.085938 182.183594 C 40.757812 181.730469 40.429688 181.277344 40.101562 180.820312 C 39.582031 189.578125 37.9375 197.109375 38.09375 204.6875 L 42.425781 213.691406 L 38.230469 207.417969 C 38.425781 209.742188 38.820312 212.085938 39.5 214.484375 C 41.042969 219.933594 43.429688 224.625 46.707031 228.78125 L 45.292969 222.972656 L 48.417969 230.8125 C 51.253906 233.96875 54.648438 236.808594 58.632812 239.445312 L 56.457031 234.449219 L 60.738281 240.789062 C 62.980469 242.164062 65.390625 243.484375 67.972656 244.765625 Z M 84.355469 211.433594 C 86.167969 211.414062 87.542969 210.917969 88.675781 209.96875 L 84.988281 210.507812 L 89.46875 209.191406 C 89.988281 208.597656 90.460938 207.886719 90.90625 207.0625 C 83.753906 213.875 75.144531 192.078125 68.40625 199.804688 C 67.660156 200.660156 67.128906 200.503906 66.675781 200.027344 C 58.558594 191.484375 51.640625 215.59375 45.066406 205.261719 C 44.730469 206.128906 44.914062 207.453125 45.5 208.726562 L 49.230469 211.0625 L 45.980469 209.617188 C 47.15625 211.480469 49.210938 212.949219 51.753906 212.238281 C 55.0625 211.308594 62.316406 203.527344 65.539062 204.855469 C 67.058594 205.609375 68.296875 205.359375 69.382812 204.660156 C 72.398438 202.714844 77.789062 211.503906 84.355469 211.433594 Z M 92.5625 176.078125 C 92.199219 176.757812 92.140625 177.429688 92.539062 178.082031 C 92.828125 177.351562 92.84375 176.691406 92.5625 176.078125 Z M 41.574219 175.617188 C 41.246094 176.296875 41.214844 176.964844 41.644531 177.617188 C 41.898438 176.890625 41.886719 176.230469 41.574219 175.617188 Z M 40.183594 174.0625 C 48.71875 172.234375 56.832031 172.71875 64.730469 174.816406 C 66.898438 175.390625 69.1875 175.320312 71.324219 174.773438 C 78.933594 172.824219 86.519531 172.769531 94.023438 174.757812 C 94.300781 175.84375 94.179688 176.769531 94.214844 177.738281 C 94.257812 178.9375 93.027344 179.007812 92.742188 180.300781 C 92.640625 180.777344 92.5625 181.507812 92.507812 182.042969 C 92.144531 185.933594 90.59375 188.441406 88.601562 189.300781 C 85.828125 190.492188 82.351562 190.417969 79.664062 190.324219 C 75.261719 190.171875 72.769531 185.949219 71.445312 181.753906 C 71.214844 181.039062 71.042969 180.046875 70.882812 179.351562 C 70.226562 176.566406 65.773438 176.113281 64.929688 179.417969 C 64.375 181.582031 63.34375 187.304688 59.183594 189.582031 C 56.625 190.988281 48.429688 190.605469 45.835938 189.394531 C 44.195312 188.625 43.039062 186.828125 42.5 184.390625 C 42.210938 183.070312 41.960938 181.917969 41.71875 180.585938 C 41.609375 179.984375 41.039062 179.867188 40.601562 179.347656 C 39.933594 178.542969 40.125 174.789062 40.183594 174.0625" fill-rule="evenodd"/></g><g fill="#FFF"><g><g><path d="M 15.015625 -21.5 C 13.265625 -21.5 11.898438 -20.785156 10.921875 -19.359375 C 9.953125 -17.929688 9.46875 -15.960938 9.46875 -13.453125 C 9.46875 -8.234375 11.453125 -5.625 15.421875 -5.625 C 16.617188 -5.625 17.78125 -5.789062 18.90625 -6.125 C 20.03125 -6.457031 21.160156 -6.859375 22.296875 -7.328125 L 22.296875 -1.125 C 20.035156 -0.125 17.476562 0.375 14.625 0.375 C 10.53125 0.375 7.390625 -0.8125 5.203125 -3.1875 C 3.023438 -5.5625 1.9375 -8.992188 1.9375 -13.484375 C 1.9375 -16.296875 2.460938 -18.765625 3.515625 -20.890625 C 4.578125 -23.015625 6.097656 -24.648438 8.078125 -25.796875 C 10.066406 -26.941406 12.398438 -27.515625 15.078125 -27.515625 C 18.015625 -27.515625 20.816406 -26.878906 23.484375 -25.609375 L 21.25 -19.828125 C 20.25 -20.304688 19.242188 -20.703125 18.234375 -21.015625 C 17.234375 -21.335938 16.160156 -21.5 15.015625 -21.5 Z M 15.015625 -21.5" transform="translate(133.218 191.978)"/></g></g></g><g fill="#FFF"><g><g><path d="M 18.171875 -27.125 L 26.359375 -27.125 L 17.484375 0 L 8.84375 0 L 0 -27.125 L 8.234375 -27.125 L 11.9375 -13.375 C 12.695312 -10.320312 13.113281 -8.195312 13.1875 -7 C 13.28125 -7.863281 13.457031 -8.941406 13.71875 -10.234375 C 13.976562 -11.535156 14.207031 -12.554688 14.40625 -13.296875 Z M 18.171875 -27.125" transform="translate(157.872 191.978)"/></g></g></g><g fill="#FFF"><g><g><path d="M 2.9375 -27.125 L 12.390625 -27.125 C 16.078125 -27.125 18.8125 -26.578125 20.59375 -25.484375 C 22.382812 -24.390625 23.28125 -22.6875 23.28125 -20.375 C 23.28125 -18.851562 22.890625 -17.550781 22.109375 -16.46875 C 21.335938 -15.394531 20.3125 -14.707031 19.03125 -14.40625 L 19.03125 -14.21875 C 20.71875 -13.769531 21.9375 -13.023438 22.6875 -11.984375 C 23.445312 -10.941406 23.828125 -9.59375 23.828125 -7.9375 C 23.828125 -5.476562 22.898438 -3.539062 21.046875 -2.125 C 19.203125 -0.707031 16.679688 0 13.484375 0 L 2.9375 0 Z M 10.265625 -16.71875 L 12.46875 -16.71875 C 13.519531 -16.71875 14.332031 -16.929688 14.90625 -17.359375 C 15.476562 -17.796875 15.765625 -18.441406 15.765625 -19.296875 C 15.765625 -20.816406 14.617188 -21.578125 12.328125 -21.578125 L 10.265625 -21.578125 Z M 10.265625 -11.359375 L 10.265625 -5.65625 L 12.84375 -5.65625 C 15.125 -5.65625 16.265625 -6.617188 16.265625 -8.546875 C 16.265625 -9.453125 15.957031 -10.144531 15.34375 -10.625 C 14.738281 -11.113281 13.851562 -11.359375 12.6875 -11.359375 Z M 10.265625 -11.359375" transform="translate(194.102 191.978)"/></g></g></g><g fill="#FFF"><g><g><path d="M 16.21875 0 L 14.828125 -2.78125 L 14.671875 -2.78125 C 13.703125 -1.570312 12.707031 -0.742188 11.6875 -0.296875 C 10.675781 0.148438 9.363281 0.375 7.75 0.375 C 5.769531 0.375 4.210938 -0.21875 3.078125 -1.40625 C 1.941406 -2.59375 1.375 -4.265625 1.375 -6.421875 C 1.375 -8.660156 2.148438 -10.328125 3.703125 -11.421875 C 5.265625 -12.515625 7.523438 -13.128906 10.484375 -13.265625 L 13.984375 -13.375 L 13.984375 -13.671875 C 13.984375 -15.398438 13.132812 -16.265625 11.4375 -16.265625 C 9.894531 -16.265625 7.941406 -15.75 5.578125 -14.71875 L 3.484375 -19.5 C 5.929688 -20.757812 9.023438 -21.390625 12.765625 -21.390625 C 15.460938 -21.390625 17.550781 -20.722656 19.03125 -19.390625 C 20.507812 -18.054688 21.25 -16.1875 21.25 -13.78125 L 21.25 0 Z M 10.84375 -4.75 C 11.71875 -4.75 12.46875 -5.023438 13.09375 -5.578125 C 13.71875 -6.140625 14.03125 -6.863281 14.03125 -7.75 L 14.03125 -9.390625 L 12.359375 -9.3125 C 9.972656 -9.226562 8.78125 -8.351562 8.78125 -6.6875 C 8.78125 -5.394531 9.46875 -4.75 10.84375 -4.75 Z M 10.84375 -4.75" transform="translate(219.702 191.978)"/></g></g></g><g fill="#FFF"><g><g><path d="M 2.9375 -27.125 L 12.390625 -27.125 C 16.078125 -27.125 18.8125 -26.578125 20.59375 -25.484375 C 22.382812 -24.390625 23.28125 -22.6875 23.28125 -20.375 C 23.28125 -18.851562 22.890625 -17.550781 22.109375 -16.46875 C 21.335938 -15.394531 20.3125 -14.707031 19.03125 -14.40625 L 19.03125 -14.21875 C 20.71875 -13.769531 21.9375 -13.023438 22.6875 -11.984375 C 23.445312 -10.941406 23.828125 -9.59375 23.828125 -7.9375 C 23.828125 -5.476562 22.898438 -3.539062 21.046875 -2.125 C 19.203125 -0.707031 16.679688 0 13.484375 0 L 2.9375 0 Z M 10.265625 -16.71875 L 12.46875 -16.71875 C 13.519531 -16.71875 14.332031 -16.929688 14.90625 -17.359375 C 15.476562 -17.796875 15.765625 -18.441406 15.765625 -19.296875 C 15.765625 -20.816406 14.617188 -21.578125 12.328125 -21.578125 L 10.265625 -21.578125 Z M 10.265625 -11.359375 L 10.265625 -5.65625 L 12.84375 -5.65625 C 15.125 -5.65625 16.265625 -6.617188 16.265625 -8.546875 C 16.265625 -9.453125 15.957031 -10.144531 15.34375 -10.625 C 14.738281 -11.113281 13.851562 -11.359375 12.6875 -11.359375 Z M 10.265625 -11.359375" transform="translate(243.373 191.978)"/></g></g></g><g fill="#FFF"><g><g><path d="M 16.21875 0 L 14.828125 -2.78125 L 14.671875 -2.78125 C 13.703125 -1.570312 12.707031 -0.742188 11.6875 -0.296875 C 10.675781 0.148438 9.363281 0.375 7.75 0.375 C 5.769531 0.375 4.210938 -0.21875 3.078125 -1.40625 C 1.941406 -2.59375 1.375 -4.265625 1.375 -6.421875 C 1.375 -8.660156 2.148438 -10.328125 3.703125 -11.421875 C 5.265625 -12.515625 7.523438 -13.128906 10.484375 -13.265625 L 13.984375 -13.375 L 13.984375 -13.671875 C 13.984375 -15.398438 13.132812 -16.265625 11.4375 -16.265625 C 9.894531 -16.265625 7.941406 -15.75 5.578125 -14.71875 L 3.484375 -19.5 C 5.929688 -20.757812 9.023438 -21.390625 12.765625 -21.390625 C 15.460938 -21.390625 17.550781 -20.722656 19.03125 -19.390625 C 20.507812 -18.054688 21.25 -16.1875 21.25 -13.78125 L 21.25 0 Z M 10.84375 -4.75 C 11.71875 -4.75 12.46875 -5.023438 13.09375 -5.578125 C 13.71875 -6.140625 14.03125 -6.863281 14.03125 -7.75 L 14.03125 -9.390625 L 12.359375 -9.3125 C 9.972656 -9.226562 8.78125 -8.351562 8.78125 -6.6875 C 8.78125 -5.394531 9.46875 -4.75 10.84375 -4.75 Z M 10.84375 -4.75" transform="translate(268.973 191.978)"/></g></g></g><g fill="#FFF"><g><g><path d="M 11.484375 -5.734375 C 11.484375 -3.898438 11.019531 -2.457031 10.09375 -1.40625 C 9.175781 -0.363281 7.894531 0.15625 6.25 0.15625 C 4.5625 0.15625 3.257812 -0.359375 2.34375 -1.390625 C 1.4375 -2.421875 0.984375 -3.875 0.984375 -5.75 C 0.984375 -7.601562 1.441406 -9.039062 2.359375 -10.0625 C 3.273438 -11.09375 4.578125 -11.609375 6.265625 -11.609375 C 7.898438 -11.609375 9.175781 -11.085938 10.09375 -10.046875 C 11.019531 -9.003906 11.484375 -7.566406 11.484375 -5.734375 Z M 2.390625 -5.734375 C 2.390625 -4.179688 2.71875 -3.003906 3.375 -2.203125 C 4.03125 -1.410156 4.988281 -1.015625 6.25 -1.015625 C 7.507812 -1.015625 8.460938 -1.410156 9.109375 -2.203125 C 9.753906 -3.003906 10.078125 -4.179688 10.078125 -5.734375 C 10.078125 -7.265625 9.753906 -8.425781 9.109375 -9.21875 C 8.472656 -10.019531 7.523438 -10.421875 6.265625 -10.421875 C 4.992188 -10.421875 4.03125 -10.019531 3.375 -9.21875 C 2.71875 -8.414062 2.390625 -7.253906 2.390625 -5.734375 Z M 2.390625 -5.734375" transform="translate(108.098 232.68)"/></g></g></g><g fill="#FFF"><g><g><path d="M 5.359375 0.15625 C 4.804688 0.15625 4.296875 0.0507812 3.828125 -0.15625 C 3.367188 -0.363281 2.984375 -0.679688 2.671875 -1.109375 L 2.578125 -1.109375 C 2.640625 -0.609375 2.671875 -0.128906 2.671875 0.328125 L 2.671875 3.84375 L 1.375 3.84375 L 1.375 -8.5625 L 2.4375 -8.5625 L 2.609375 -7.390625 L 2.671875 -7.390625 C 3.003906 -7.859375 3.390625 -8.195312 3.828125 -8.40625 C 4.273438 -8.613281 4.785156 -8.71875 5.359375 -8.71875 C 6.492188 -8.71875 7.367188 -8.328125 7.984375 -7.546875 C 8.609375 -6.773438 8.921875 -5.691406 8.921875 -4.296875 C 8.921875 -2.890625 8.601562 -1.796875 7.96875 -1.015625 C 7.34375 -0.234375 6.472656 0.15625 5.359375 0.15625 Z M 5.171875 -7.625 C 4.296875 -7.625 3.660156 -7.378906 3.265625 -6.890625 C 2.878906 -6.410156 2.679688 -5.640625 2.671875 -4.578125 L 2.671875 -4.296875 C 2.671875 -3.085938 2.867188 -2.222656 3.265625 -1.703125 C 3.671875 -1.191406 4.316406 -0.9375 5.203125 -0.9375 C 5.941406 -0.9375 6.519531 -1.234375 6.9375 -1.828125 C 7.363281 -2.429688 7.578125 -3.257812 7.578125 -4.3125 C 7.578125 -5.375 7.363281 -6.191406 6.9375 -6.765625 C 6.519531 -7.335938 5.929688 -7.625 5.171875 -7.625 Z M 5.171875 -7.625" transform="translate(120.556 232.68)"/></g></g></g><g fill="#FFF"><g><g><path d="M 5 0.15625 C 3.726562 0.15625 2.726562 -0.226562 2 -1 C 1.269531 -1.769531 0.90625 -2.84375 0.90625 -4.21875 C 0.90625 -5.59375 1.242188 -6.6875 1.921875 -7.5 C 2.597656 -8.3125 3.507812 -8.71875 4.65625 -8.71875 C 5.726562 -8.71875 6.578125 -8.363281 7.203125 -7.65625 C 7.828125 -6.957031 8.140625 -6.03125 8.140625 -4.875 L 8.140625 -4.046875 L 2.25 -4.046875 C 2.269531 -3.046875 2.519531 -2.285156 3 -1.765625 C 3.488281 -1.242188 4.171875 -0.984375 5.046875 -0.984375 C 5.960938 -0.984375 6.875 -1.175781 7.78125 -1.5625 L 7.78125 -0.40625 C 7.320312 -0.207031 6.882812 -0.0664062 6.46875 0.015625 C 6.0625 0.109375 5.570312 0.15625 5 0.15625 Z M 4.640625 -7.640625 C 3.953125 -7.640625 3.40625 -7.414062 3 -6.96875 C 2.59375 -6.519531 2.351562 -5.898438 2.28125 -5.109375 L 6.75 -5.109375 C 6.75 -5.921875 6.566406 -6.546875 6.203125 -6.984375 C 5.835938 -7.421875 5.316406 -7.640625 4.640625 -7.640625 Z M 4.640625 -7.640625" transform="translate(130.358 232.68)"/></g></g></g><g fill="#FFF"><g><g><path d="M 7.234375 0 L 7.234375 -5.546875 C 7.234375 -6.242188 7.070312 -6.765625 6.75 -7.109375 C 6.4375 -7.453125 5.941406 -7.625 5.265625 -7.625 C 4.367188 -7.625 3.710938 -7.378906 3.296875 -6.890625 C 2.878906 -6.410156 2.671875 -5.613281 2.671875 -4.5 L 2.671875 0 L 1.375 0 L 1.375 -8.5625 L 2.4375 -8.5625 L 2.640625 -7.390625 L 2.703125 -7.390625 C 2.972656 -7.816406 3.347656 -8.144531 3.828125 -8.375 C 4.304688 -8.601562 4.835938 -8.71875 5.421875 -8.71875 C 6.453125 -8.71875 7.226562 -8.46875 7.75 -7.96875 C 8.269531 -7.476562 8.53125 -6.6875 8.53125 -5.59375 L 8.53125 0 Z M 7.234375 0" transform="translate(139.332 232.68)"/></g></g></g><g fill="#FFF"><g><g><path d="M 0.65625 -3.703125 L 0.65625 -4.890625 L 4.5 -4.890625 L 4.5 -3.703125 Z M 0.65625 -3.703125" transform="translate(149.15 232.68)"/></g></g></g><g fill="#FFF"><g><g><path d="M 6.90625 -2.34375 C 6.90625 -1.539062 6.609375 -0.921875 6.015625 -0.484375 C 5.421875 -0.0546875 4.585938 0.15625 3.515625 0.15625 C 2.378906 0.15625 1.492188 -0.0234375 0.859375 -0.390625 L 0.859375 -1.59375 C 1.265625 -1.382812 1.703125 -1.21875 2.171875 -1.09375 C 2.648438 -0.976562 3.109375 -0.921875 3.546875 -0.921875 C 4.222656 -0.921875 4.742188 -1.023438 5.109375 -1.234375 C 5.472656 -1.453125 5.65625 -1.785156 5.65625 -2.234375 C 5.65625 -2.566406 5.507812 -2.847656 5.21875 -3.078125 C 4.925781 -3.316406 4.363281 -3.597656 3.53125 -3.921875 C 2.726562 -4.222656 2.160156 -4.484375 1.828125 -4.703125 C 1.492188 -4.921875 1.242188 -5.171875 1.078125 -5.453125 C 0.910156 -5.734375 0.828125 -6.070312 0.828125 -6.46875 C 0.828125 -7.164062 1.109375 -7.710938 1.671875 -8.109375 C 2.242188 -8.515625 3.023438 -8.71875 4.015625 -8.71875 C 4.941406 -8.71875 5.84375 -8.53125 6.71875 -8.15625 L 6.265625 -7.109375 C 5.398438 -7.460938 4.617188 -7.640625 3.921875 -7.640625 C 3.304688 -7.640625 2.84375 -7.539062 2.53125 -7.34375 C 2.21875 -7.15625 2.0625 -6.890625 2.0625 -6.546875 C 2.0625 -6.316406 2.117188 -6.117188 2.234375 -5.953125 C 2.359375 -5.796875 2.550781 -5.644531 2.8125 -5.5 C 3.070312 -5.351562 3.570312 -5.144531 4.3125 -4.875 C 5.320312 -4.5 6.003906 -4.125 6.359375 -3.75 C 6.722656 -3.375 6.90625 -2.90625 6.90625 -2.34375 Z M 6.90625 -2.34375" transform="translate(154.298 232.68)"/></g></g></g><g fill="#FFF"><g><g><path d="M 8.765625 -4.296875 C 8.765625 -2.898438 8.410156 -1.804688 7.703125 -1.015625 C 7.003906 -0.234375 6.035156 0.15625 4.796875 0.15625 C 4.035156 0.15625 3.359375 -0.0195312 2.765625 -0.375 C 2.171875 -0.738281 1.710938 -1.253906 1.390625 -1.921875 C 1.066406 -2.597656 0.90625 -3.390625 0.90625 -4.296875 C 0.90625 -5.691406 1.253906 -6.773438 1.953125 -7.546875 C 2.648438 -8.328125 3.617188 -8.71875 4.859375 -8.71875 C 6.054688 -8.71875 7.003906 -8.316406 7.703125 -7.515625 C 8.410156 -6.722656 8.765625 -5.648438 8.765625 -4.296875 Z M 2.25 -4.296875 C 2.25 -3.203125 2.46875 -2.367188 2.90625 -1.796875 C 3.34375 -1.222656 3.984375 -0.9375 4.828125 -0.9375 C 5.679688 -0.9375 6.328125 -1.21875 6.765625 -1.78125 C 7.203125 -2.351562 7.421875 -3.191406 7.421875 -4.296875 C 7.421875 -5.378906 7.203125 -6.203125 6.765625 -6.765625 C 6.328125 -7.335938 5.675781 -7.625 4.8125 -7.625 C 3.96875 -7.625 3.328125 -7.34375 2.890625 -6.78125 C 2.460938 -6.226562 2.25 -5.398438 2.25 -4.296875 Z M 2.25 -4.296875" transform="translate(161.929 232.68)"/></g></g></g><g fill="#FFF"><g><g><path d="M 2.59375 -8.5625 L 2.59375 -3.015625 C 2.59375 -2.316406 2.75 -1.796875 3.0625 -1.453125 C 3.382812 -1.109375 3.882812 -0.9375 4.5625 -0.9375 C 5.457031 -0.9375 6.113281 -1.179688 6.53125 -1.671875 C 6.945312 -2.160156 7.15625 -2.957031 7.15625 -4.0625 L 7.15625 -8.5625 L 8.453125 -8.5625 L 8.453125 0 L 7.375 0 L 7.1875 -1.15625 L 7.125 -1.15625 C 6.851562 -0.726562 6.484375 -0.398438 6.015625 -0.171875 C 5.546875 0.046875 5.007812 0.15625 4.40625 0.15625 C 3.363281 0.15625 2.582031 -0.0859375 2.0625 -0.578125 C 1.539062 -1.078125 1.28125 -1.875 1.28125 -2.96875 L 1.28125 -8.5625 Z M 2.59375 -8.5625" transform="translate(171.59 232.68)"/></g></g></g><g fill="#FFF"><g><g><path d="M 5.28125 -8.71875 C 5.664062 -8.71875 6.007812 -8.6875 6.3125 -8.625 L 6.125 -7.421875 C 5.769531 -7.503906 5.457031 -7.546875 5.1875 -7.546875 C 4.5 -7.546875 3.90625 -7.265625 3.40625 -6.703125 C 2.914062 -6.140625 2.671875 -5.4375 2.671875 -4.59375 L 2.671875 0 L 1.375 0 L 1.375 -8.5625 L 2.453125 -8.5625 L 2.59375 -6.984375 L 2.65625 -6.984375 C 2.976562 -7.535156 3.363281 -7.960938 3.8125 -8.265625 C 4.257812 -8.566406 4.75 -8.71875 5.28125 -8.71875 Z M 5.28125 -8.71875" transform="translate(181.408 232.68)"/></g></g></g><g fill="#FFF"><g><g><path d="M 4.796875 0.15625 C 3.554688 0.15625 2.597656 -0.222656 1.921875 -0.984375 C 1.242188 -1.753906 0.90625 -2.835938 0.90625 -4.234375 C 0.90625 -5.660156 1.25 -6.765625 1.9375 -7.546875 C 2.625 -8.328125 3.609375 -8.71875 4.890625 -8.71875 C 5.296875 -8.71875 5.703125 -8.671875 6.109375 -8.578125 C 6.523438 -8.492188 6.851562 -8.394531 7.09375 -8.28125 L 6.6875 -7.171875 C 6.40625 -7.285156 6.09375 -7.378906 5.75 -7.453125 C 5.414062 -7.535156 5.117188 -7.578125 4.859375 -7.578125 C 3.117188 -7.578125 2.25 -6.46875 2.25 -4.25 C 2.25 -3.195312 2.457031 -2.390625 2.875 -1.828125 C 3.300781 -1.265625 3.929688 -0.984375 4.765625 -0.984375 C 5.484375 -0.984375 6.21875 -1.132812 6.96875 -1.4375 L 6.96875 -0.296875 C 6.394531 0.00390625 5.671875 0.15625 4.796875 0.15625 Z M 4.796875 0.15625" transform="translate(187.938 232.68)"/></g></g></g><g fill="#FFF"><g><g><path d="M 5 0.15625 C 3.726562 0.15625 2.726562 -0.226562 2 -1 C 1.269531 -1.769531 0.90625 -2.84375 0.90625 -4.21875 C 0.90625 -5.59375 1.242188 -6.6875 1.921875 -7.5 C 2.597656 -8.3125 3.507812 -8.71875 4.65625 -8.71875 C 5.726562 -8.71875 6.578125 -8.363281 7.203125 -7.65625 C 7.828125 -6.957031 8.140625 -6.03125 8.140625 -4.875 L 8.140625 -4.046875 L 2.25 -4.046875 C 2.269531 -3.046875 2.519531 -2.285156 3 -1.765625 C 3.488281 -1.242188 4.171875 -0.984375 5.046875 -0.984375 C 5.960938 -0.984375 6.875 -1.175781 7.78125 -1.5625 L 7.78125 -0.40625 C 7.320312 -0.207031 6.882812 -0.0664062 6.46875 0.015625 C 6.0625 0.109375 5.570312 0.15625 5 0.15625 Z M 4.640625 -7.640625 C 3.953125 -7.640625 3.40625 -7.414062 3 -6.96875 C 2.59375 -6.519531 2.351562 -5.898438 2.28125 -5.109375 L 6.75 -5.109375 C 6.75 -5.921875 6.566406 -6.546875 6.203125 -6.984375 C 5.835938 -7.421875 5.316406 -7.640625 4.640625 -7.640625 Z M 4.640625 -7.640625" transform="translate(195.553 232.68)"/></g></g></g><g fill="#FFF"><g><g><path d="M 6.46875 -10.40625 C 5.207031 -10.40625 4.210938 -9.984375 3.484375 -9.140625 C 2.765625 -8.304688 2.40625 -7.164062 2.40625 -5.71875 C 2.40625 -4.21875 2.753906 -3.0625 3.453125 -2.25 C 4.148438 -1.4375 5.148438 -1.03125 6.453125 -1.03125 C 7.242188 -1.03125 8.148438 -1.171875 9.171875 -1.453125 L 9.171875 -0.296875 C 8.378906 0.00390625 7.40625 0.15625 6.25 0.15625 C 4.5625 0.15625 3.257812 -0.351562 2.34375 -1.375 C 1.4375 -2.394531 0.984375 -3.847656 0.984375 -5.734375 C 0.984375 -6.910156 1.203125 -7.941406 1.640625 -8.828125 C 2.078125 -9.710938 2.710938 -10.394531 3.546875 -10.875 C 4.378906 -11.351562 5.359375 -11.59375 6.484375 -11.59375 C 7.679688 -11.59375 8.726562 -11.375 9.625 -10.9375 L 9.0625 -9.796875 C 8.195312 -10.203125 7.332031 -10.40625 6.46875 -10.40625 Z M 6.46875 -10.40625" transform="translate(208.683 232.68)"/></g></g></g><g fill="#FFF"><g><g><path d="M 8.09375 -11.421875 L 9.53125 -11.421875 L 5.40625 0 L 4.09375 0 L 0 -11.421875 L 1.40625 -11.421875 L 4.03125 -4.03125 C 4.332031 -3.1875 4.570312 -2.363281 4.75 -1.5625 C 4.9375 -2.40625 5.179688 -3.242188 5.484375 -4.078125 Z M 8.09375 -11.421875" transform="translate(218.774 232.68)"/></g></g></g><g fill="#FFF"><g><g><path d="M 6.640625 0 L 6.390625 -1.21875 L 6.328125 -1.21875 C 5.898438 -0.6875 5.472656 -0.320312 5.046875 -0.125 C 4.617188 0.0625 4.085938 0.15625 3.453125 0.15625 C 2.609375 0.15625 1.941406 -0.0625 1.453125 -0.5 C 0.972656 -0.9375 0.734375 -1.5625 0.734375 -2.375 C 0.734375 -4.101562 2.117188 -5.007812 4.890625 -5.09375 L 6.34375 -5.140625 L 6.34375 -5.671875 C 6.34375 -6.335938 6.195312 -6.832031 5.90625 -7.15625 C 5.613281 -7.476562 5.148438 -7.640625 4.515625 -7.640625 C 3.804688 -7.640625 3 -7.421875 2.09375 -6.984375 L 1.703125 -7.96875 C 2.117188 -8.195312 2.578125 -8.375 3.078125 -8.5 C 3.585938 -8.632812 4.09375 -8.703125 4.59375 -8.703125 C 5.613281 -8.703125 6.367188 -8.472656 6.859375 -8.015625 C 7.359375 -7.566406 7.609375 -6.84375 7.609375 -5.84375 L 7.609375 0 Z M 3.71875 -0.921875 C 4.519531 -0.921875 5.148438 -1.140625 5.609375 -1.578125 C 6.078125 -2.023438 6.3125 -2.644531 6.3125 -3.4375 L 6.3125 -4.21875 L 5.015625 -4.15625 C 3.984375 -4.125 3.238281 -3.960938 2.78125 -3.671875 C 2.320312 -3.390625 2.09375 -2.953125 2.09375 -2.359375 C 2.09375 -1.890625 2.234375 -1.53125 2.515625 -1.28125 C 2.804688 -1.039062 3.207031 -0.921875 3.71875 -0.921875 Z M 3.71875 -0.921875" transform="translate(232.45 232.68)"/></g></g></g><g fill="#FFF"><g><g><path d="M 7.234375 0 L 7.234375 -5.546875 C 7.234375 -6.242188 7.070312 -6.765625 6.75 -7.109375 C 6.4375 -7.453125 5.941406 -7.625 5.265625 -7.625 C 4.367188 -7.625 3.710938 -7.378906 3.296875 -6.890625 C 2.878906 -6.410156 2.671875 -5.613281 2.671875 -4.5 L 2.671875 0 L 1.375 0 L 1.375 -8.5625 L 2.4375 -8.5625 L 2.640625 -7.390625 L 2.703125 -7.390625 C 2.972656 -7.816406 3.347656 -8.144531 3.828125 -8.375 C 4.304688 -8.601562 4.835938 -8.71875 5.421875 -8.71875 C 6.453125 -8.71875 7.226562 -8.46875 7.75 -7.96875 C 8.269531 -7.476562 8.53125 -6.6875 8.53125 -5.59375 L 8.53125 0 Z M 7.234375 0" transform="translate(241.347 232.68)"/></g></g></g><g fill="#FFF"><g><g><path d="M 7.203125 -1.15625 L 7.140625 -1.15625 C 6.535156 -0.28125 5.640625 0.15625 4.453125 0.15625 C 3.328125 0.15625 2.453125 -0.222656 1.828125 -0.984375 C 1.210938 -1.753906 0.90625 -2.847656 0.90625 -4.265625 C 0.90625 -5.671875 1.21875 -6.765625 1.84375 -7.546875 C 2.46875 -8.328125 3.335938 -8.71875 4.453125 -8.71875 C 5.609375 -8.71875 6.5 -8.296875 7.125 -7.453125 L 7.21875 -7.453125 L 7.171875 -8.078125 L 7.140625 -8.671875 L 7.140625 -12.15625 L 8.4375 -12.15625 L 8.4375 0 L 7.375 0 Z M 4.609375 -0.9375 C 5.492188 -0.9375 6.132812 -1.175781 6.53125 -1.65625 C 6.9375 -2.132812 7.140625 -2.910156 7.140625 -3.984375 L 7.140625 -4.265625 C 7.140625 -5.472656 6.9375 -6.335938 6.53125 -6.859375 C 6.125 -7.378906 5.476562 -7.640625 4.59375 -7.640625 C 3.832031 -7.640625 3.25 -7.34375 2.84375 -6.75 C 2.445312 -6.15625 2.25 -5.320312 2.25 -4.25 C 2.25 -3.15625 2.445312 -2.328125 2.84375 -1.765625 C 3.25 -1.210938 3.835938 -0.9375 4.609375 -0.9375 Z M 4.609375 -0.9375" transform="translate(251.165 232.68)"/></g></g></g><g fill="#FFF"><g><g><path d="M 8.8125 -8.09375 C 8.8125 -6.9375 8.414062 -6.046875 7.625 -5.421875 C 6.84375 -4.804688 5.71875 -4.5 4.25 -4.5 L 2.90625 -4.5 L 2.90625 0 L 1.578125 0 L 1.578125 -11.421875 L 4.53125 -11.421875 C 7.382812 -11.421875 8.8125 -10.3125 8.8125 -8.09375 Z M 2.90625 -5.640625 L 4.09375 -5.640625 C 5.269531 -5.640625 6.117188 -5.828125 6.640625 -6.203125 C 7.171875 -6.585938 7.4375 -7.195312 7.4375 -8.03125 C 7.4375 -8.789062 7.1875 -9.351562 6.6875 -9.71875 C 6.195312 -10.09375 5.429688 -10.28125 4.390625 -10.28125 L 2.90625 -10.28125 Z M 2.90625 -5.640625" transform="translate(265.122 232.68)"/></g></g></g><g fill="#FFF"><g><g><path d="M 8.765625 -4.296875 C 8.765625 -2.898438 8.410156 -1.804688 7.703125 -1.015625 C 7.003906 -0.234375 6.035156 0.15625 4.796875 0.15625 C 4.035156 0.15625 3.359375 -0.0195312 2.765625 -0.375 C 2.171875 -0.738281 1.710938 -1.253906 1.390625 -1.921875 C 1.066406 -2.597656 0.90625 -3.390625 0.90625 -4.296875 C 0.90625 -5.691406 1.253906 -6.773438 1.953125 -7.546875 C 2.648438 -8.328125 3.617188 -8.71875 4.859375 -8.71875 C 6.054688 -8.71875 7.003906 -8.316406 7.703125 -7.515625 C 8.410156 -6.722656 8.765625 -5.648438 8.765625 -4.296875 Z M 2.25 -4.296875 C 2.25 -3.203125 2.46875 -2.367188 2.90625 -1.796875 C 3.34375 -1.222656 3.984375 -0.9375 4.828125 -0.9375 C 5.679688 -0.9375 6.328125 -1.21875 6.765625 -1.78125 C 7.203125 -2.351562 7.421875 -3.191406 7.421875 -4.296875 C 7.421875 -5.378906 7.203125 -6.203125 6.765625 -6.765625 C 6.328125 -7.335938 5.675781 -7.625 4.8125 -7.625 C 3.96875 -7.625 3.328125 -7.34375 2.890625 -6.78125 C 2.460938 -6.226562 2.25 -5.398438 2.25 -4.296875 Z M 2.25 -4.296875" transform="translate(274.753 232.68)"/></g></g></g><g fill="#FFF"><g><g><path d="M 5.28125 -8.71875 C 5.664062 -8.71875 6.007812 -8.6875 6.3125 -8.625 L 6.125 -7.421875 C 5.769531 -7.503906 5.457031 -7.546875 5.1875 -7.546875 C 4.5 -7.546875 3.90625 -7.265625 3.40625 -6.703125 C 2.914062 -6.140625 2.671875 -5.4375 2.671875 -4.59375 L 2.671875 0 L 1.375 0 L 1.375 -8.5625 L 2.453125 -8.5625 L 2.59375 -6.984375 L 2.65625 -6.984375 C 2.976562 -7.535156 3.363281 -7.960938 3.8125 -8.265625 C 4.257812 -8.566406 4.75 -8.71875 5.28125 -8.71875 Z M 5.28125 -8.71875" transform="translate(284.414 232.68)"/></g></g></g><g fill="#FFF"><g><g><path d="M 4.140625 -0.921875 C 4.367188 -0.921875 4.585938 -0.9375 4.796875 -0.96875 C 5.015625 -1 5.1875 -1.035156 5.3125 -1.078125 L 5.3125 -0.078125 C 5.175781 -0.00390625 4.96875 0.0507812 4.6875 0.09375 C 4.414062 0.132812 4.171875 0.15625 3.953125 0.15625 C 2.296875 0.15625 1.46875 -0.71875 1.46875 -2.46875 L 1.46875 -7.5625 L 0.25 -7.5625 L 0.25 -8.1875 L 1.46875 -8.71875 L 2.015625 -10.546875 L 2.765625 -10.546875 L 2.765625 -8.5625 L 5.25 -8.5625 L 5.25 -7.5625 L 2.765625 -7.5625 L 2.765625 -2.515625 C 2.765625 -2.003906 2.882812 -1.609375 3.125 -1.328125 C 3.375 -1.054688 3.710938 -0.921875 4.140625 -0.921875 Z M 4.140625 -0.921875" transform="translate(290.944 232.68)"/></g></g></g><g fill="#FFF"><g><g><path d="M 5.234375 -7.5625 L 3.0625 -7.5625 L 3.0625 0 L 1.765625 0 L 1.765625 -7.5625 L 0.234375 -7.5625 L 0.234375 -8.140625 L 1.765625 -8.609375 L 1.765625 -9.09375 C 1.765625 -11.195312 2.679688 -12.25 4.515625 -12.25 C 4.972656 -12.25 5.503906 -12.15625 6.109375 -11.96875 L 5.78125 -10.9375 C 5.28125 -11.09375 4.851562 -11.171875 4.5 -11.171875 C 4.007812 -11.171875 3.644531 -11.007812 3.40625 -10.6875 C 3.175781 -10.363281 3.0625 -9.84375 3.0625 -9.125 L 3.0625 -8.5625 L 5.234375 -8.5625 Z M 5.234375 -7.5625" transform="translate(296.591 232.68)"/></g></g></g><g fill="#FFF"><g><g><path d="M 8.765625 -4.296875 C 8.765625 -2.898438 8.410156 -1.804688 7.703125 -1.015625 C 7.003906 -0.234375 6.035156 0.15625 4.796875 0.15625 C 4.035156 0.15625 3.359375 -0.0195312 2.765625 -0.375 C 2.171875 -0.738281 1.710938 -1.253906 1.390625 -1.921875 C 1.066406 -2.597656 0.90625 -3.390625 0.90625 -4.296875 C 0.90625 -5.691406 1.253906 -6.773438 1.953125 -7.546875 C 2.648438 -8.328125 3.617188 -8.71875 4.859375 -8.71875 C 6.054688 -8.71875 7.003906 -8.316406 7.703125 -7.515625 C 8.410156 -6.722656 8.765625 -5.648438 8.765625 -4.296875 Z M 2.25 -4.296875 C 2.25 -3.203125 2.46875 -2.367188 2.90625 -1.796875 C 3.34375 -1.222656 3.984375 -0.9375 4.828125 -0.9375 C 5.679688 -0.9375 6.328125 -1.21875 6.765625 -1.78125 C 7.203125 -2.351562 7.421875 -3.191406 7.421875 -4.296875 C 7.421875 -5.378906 7.203125 -6.203125 6.765625 -6.765625 C 6.328125 -7.335938 5.675781 -7.625 4.8125 -7.625 C 3.96875 -7.625 3.328125 -7.34375 2.890625 -6.78125 C 2.460938 -6.226562 2.25 -5.398438 2.25 -4.296875 Z M 2.25 -4.296875" transform="translate(302.012 232.68)"/></g></g></g><g fill="#FFF"><g><g><path d="M 2.671875 0 L 1.375 0 L 1.375 -12.15625 L 2.671875 -12.15625 Z M 2.671875 0" transform="translate(311.673 232.68)"/></g></g></g><g fill="#FFF"><g><g><path d="M 2.671875 0 L 1.375 0 L 1.375 -8.5625 L 2.671875 -8.5625 Z M 1.265625 -10.890625 C 1.265625 -11.179688 1.335938 -11.394531 1.484375 -11.53125 C 1.628906 -11.675781 1.8125 -11.75 2.03125 -11.75 C 2.238281 -11.75 2.414062 -11.675781 2.5625 -11.53125 C 2.71875 -11.394531 2.796875 -11.179688 2.796875 -10.890625 C 2.796875 -10.597656 2.71875 -10.378906 2.5625 -10.234375 C 2.414062 -10.085938 2.238281 -10.015625 2.03125 -10.015625 C 1.8125 -10.015625 1.628906 -10.085938 1.484375 -10.234375 C 1.335938 -10.378906 1.265625 -10.597656 1.265625 -10.890625 Z M 1.265625 -10.890625" transform="translate(315.72 232.68)"/></g></g></g><g fill="#FFF"><g><g><path d="M 8.765625 -4.296875 C 8.765625 -2.898438 8.410156 -1.804688 7.703125 -1.015625 C 7.003906 -0.234375 6.035156 0.15625 4.796875 0.15625 C 4.035156 0.15625 3.359375 -0.0195312 2.765625 -0.375 C 2.171875 -0.738281 1.710938 -1.253906 1.390625 -1.921875 C 1.066406 -2.597656 0.90625 -3.390625 0.90625 -4.296875 C 0.90625 -5.691406 1.253906 -6.773438 1.953125 -7.546875 C 2.648438 -8.328125 3.617188 -8.71875 4.859375 -8.71875 C 6.054688 -8.71875 7.003906 -8.316406 7.703125 -7.515625 C 8.410156 -6.722656 8.765625 -5.648438 8.765625 -4.296875 Z M 2.25 -4.296875 C 2.25 -3.203125 2.46875 -2.367188 2.90625 -1.796875 C 3.34375 -1.222656 3.984375 -0.9375 4.828125 -0.9375 C 5.679688 -0.9375 6.328125 -1.21875 6.765625 -1.78125 C 7.203125 -2.351562 7.421875 -3.191406 7.421875 -4.296875 C 7.421875 -5.378906 7.203125 -6.203125 6.765625 -6.765625 C 6.328125 -7.335938 5.675781 -7.625 4.8125 -7.625 C 3.96875 -7.625 3.328125 -7.34375 2.890625 -6.78125 C 2.460938 -6.226562 2.25 -5.398438 2.25 -4.296875 Z M 2.25 -4.296875" transform="translate(319.765 232.68)"/></g></g></g></svg>